<!-- Generator: Adobe Illustrator 21.1.0, SVG Export Plug-In  -->
<svg version="1.1"
	 xmlns="http://www.w3.org/2000/svg" xmlns:xlink="http://www.w3.org/1999/xlink" xmlns:a="http://ns.adobe.com/AdobeSVGViewerExtensions/3.0/"
	 x="0px" y="0px" width="30.4px" height="30.4px" viewBox="0 0 30.4 30.4" style="enable-background:new 0 0 30.4 30.4;"
	 xml:space="preserve">
<style type="text/css">
	.st0{stroke:#000000;stroke-width:0.4;stroke-miterlimit:10;}
</style>
<defs>
</defs>
<g>
	<polygon class="st0" points="18,8.2 18.4,9.2 24.4,7.2 24,6.2 	"/>
	<rect x="8.7" y="20.2" class="st0" width="13" height="1"/>
	<circle class="st0" cx="20.5" cy="11.4" r="2.2"/>
	<polygon class="st0" points="12.9,8.2 6.9,6.2 6.5,7.2 12.5,9.2 	"/>
	<circle class="st0" cx="9.9" cy="11.4" r="2.2"/>
	<path class="st0" d="M15.2,0.2c-8.3,0-15,6.7-15,15c0,8.3,6.7,15,15,15s15-6.7,15-15C30.2,6.9,23.5,0.2,15.2,0.2z M15.2,29.2
		c-7.7,0-14-6.3-14-14c0-7.7,6.3-14,14-14s14,6.3,14,14C29.2,22.9,22.9,29.2,15.2,29.2z"/>
</g>
</svg>
