<!-- Generator: Adobe Illustrator 21.1.0, SVG Export Plug-In  -->
<svg version="1.1"
	 xmlns="http://www.w3.org/2000/svg" xmlns:xlink="http://www.w3.org/1999/xlink" xmlns:a="http://ns.adobe.com/AdobeSVGViewerExtensions/3.0/"
	 x="0px" y="0px" width="30.4px" height="30.4px" viewBox="0 0 30.4 30.4" style="enable-background:new 0 0 30.4 30.4;"
	 xml:space="preserve">
<style type="text/css">
	.st0{stroke:#000000;stroke-width:0.4;stroke-miterlimit:10;}
</style>
<defs>
</defs>
<g>
	<circle class="st0" cx="20.5" cy="10.9" r="2.2"/>
	<path class="st0" d="M9.9,19.6l-1.5,1.2L9,21.6l1.5-1.2c2.7-2.1,6.6-2.1,9.3,0l1.5,1.2l0.6-0.8l-1.5-1.2
		C17.4,17.2,13,17.2,9.9,19.6z"/>
	<circle class="st0" cx="9.9" cy="10.9" r="2.2"/>
	<path class="st0" d="M15.2,0.2c-8.3,0-15,6.7-15,15s6.7,15,15,15s15-6.7,15-15S23.5,0.2,15.2,0.2z M15.2,29.2c-7.7,0-14-6.3-14-14
		c0-7.7,6.3-14,14-14s14,6.3,14,14C29.2,22.9,22.9,29.2,15.2,29.2z"/>
</g>
</svg>
