<!-- Generator: Adobe Illustrator 21.1.0, SVG Export Plug-In  -->
<svg version="1.1"
	 xmlns="http://www.w3.org/2000/svg" xmlns:xlink="http://www.w3.org/1999/xlink" xmlns:a="http://ns.adobe.com/AdobeSVGViewerExtensions/3.0/"
	 x="0px" y="0px" width="98.5px" height="98.5px" viewBox="0 0 98.5 98.5" style="enable-background:new 0 0 98.5 98.5;"
	 xml:space="preserve">
<style type="text/css">
	.st0{fill:#FFFFFF;stroke:#FFD600;stroke-width:5;}
</style>
<defs>
</defs>
<g>
	<circle class="st0" cx="49.2" cy="49.2" r="46.7"/>
	<g>
		<path d="M30.8,64h36.8c1.5,0,2.4-1.6,1.7-2.9L50.9,28.6c-0.7-1.3-2.7-1.3-3.4,0L29.1,61.1C28.3,62.4,29.3,64,30.8,64z M75.3,68.4
			H23.2c-1.5,0-2.4-1.6-1.7-2.9l26.1-45.9c0.7-1.3,2.7-1.3,3.4,0L77,65.5C77.8,66.8,76.8,68.4,75.3,68.4z"/>
		<path d="M46.9,39.8v-0.1c0-1.3,1.1-2.4,2.4-2.4c1.3,0,2.4,1.1,2.4,2.4v0.1c0,0.1,0,0.1,0,0.2l-0.8,11.2c-0.1,0.6-0.5,1-1.1,1h-0.9
			c-0.6,0-1.1-0.4-1.1-1L46.9,40C46.9,39.9,46.9,39.9,46.9,39.8z M46.7,56.2c0-1.4,1.1-2.4,2.5-2.4c1.4,0,2.5,1.1,2.5,2.4
			c0,1.4-1.1,2.4-2.5,2.4C47.9,58.6,46.7,57.6,46.7,56.2z"/>
	</g>
</g>
</svg>
