<?xml version="1.0" encoding="utf-8"?>
<!-- Generator: Adobe Illustrator 21.1.0, SVG Export Plug-In . SVG Version: 6.00 Build 0)  -->
<svg version="1.1" id="Lager_1" xmlns="http://www.w3.org/2000/svg" xmlns:xlink="http://www.w3.org/1999/xlink" x="0px" y="0px"
	 viewBox="0 0 30.4 30.4" style="enable-background:new 0 0 30.4 30.4;" xml:space="preserve">
<style type="text/css">
	.st0{stroke:#000000;stroke-width:0.4;stroke-miterlimit:10;}
</style>
<g>
	<circle class="st0" cx="20.5" cy="10.7" r="2.2"/>
	<circle class="st0" cx="9.9" cy="10.7" r="2.2"/>
	<path class="st0" d="M15.2,0.2c-8.3,0-15,6.7-15,15s6.7,15,15,15s15-6.7,15-15S23.5,0.2,15.2,0.2z M15.2,29.2c-7.7,0-14-6.3-14-14
		s6.3-14,14-14s14,6.3,14,14S22.9,29.2,15.2,29.2z"/>
	<path d="M15.3,24.9c1.7,0,3.1-1.8,3.1-4.1s-1.4-4.1-3.1-4.1s-3.1,1.8-3.1,4.1S13.6,24.9,15.3,24.9z M15.3,17.6
		c0.9,0,1.8,1.3,1.8,3.2s-1,3.2-1.8,3.2c-0.9,0-1.8-1.3-1.8-3.2S14.4,17.6,15.3,17.6z"/>
</g>
</svg>
